<svg width="36" height="36" viewBox="0 0 18 18" fill="none" xmlns="http://www.w3.org/2000/svg">
<path d="M4.745 16.4997H13.246C13.436 16.4997 13.6189 16.5719 13.7578 16.7017C13.8966 16.8314 13.9811 17.0091 13.994 17.1987C14.007 17.3883 13.9475 17.5758 13.8276 17.7232C13.7077 17.8707 13.5362 17.9671 13.348 17.993L13.246 18H4.745C4.55498 17.9999 4.37206 17.9277 4.23321 17.798C4.09436 17.6682 4.00993 17.4906 3.99697 17.301C3.98402 17.1113 4.04352 16.9239 4.16343 16.7764C4.28335 16.629 4.45475 16.5326 4.643 16.5067L4.745 16.4997ZM1.75 13.519H16.25C16.4388 13.5208 16.6201 13.5937 16.7575 13.7233C16.8949 13.8529 16.9783 14.0295 16.9912 14.218C17.0041 14.4064 16.9454 14.5928 16.8269 14.7399C16.7084 14.8869 16.5388 14.9839 16.352 15.0113L16.25 15.0183H1.75C1.55998 15.0183 1.37706 14.9461 1.23821 14.8163C1.09936 14.6866 1.01493 14.5089 1.00197 14.3193C0.989022 14.1297 1.04852 13.9422 1.16843 13.7948C1.28835 13.6473 1.45975 13.5509 1.648 13.525L1.75 13.518V13.519ZM9 0C12.168 0 13.966 2.09747 14.227 4.63103H14.307C14.7914 4.63024 15.2713 4.72495 15.7191 4.90974C16.1669 5.09453 16.574 5.36578 16.9169 5.70798C17.2599 6.05019 17.5321 6.45664 17.7179 6.90412C17.9037 7.35159 17.9996 7.8313 18 8.31585C17.9993 8.80022 17.9033 9.27972 17.7173 9.72697C17.5314 10.1742 17.2592 10.5804 16.9162 10.9224C16.5733 11.2644 16.1663 11.5355 15.7186 11.7201C15.2709 11.9048 14.7913 11.9995 14.307 11.9987H3.693C3.20873 11.9995 2.72905 11.9048 2.28136 11.7201C1.83366 11.5355 1.42673 11.2644 1.08379 10.9224C0.740846 10.5804 0.468622 10.1742 0.282664 9.72697C0.0967062 9.27972 0.000656082 8.80022 0 8.31585C0.000524829 7.83139 0.0964781 7.35178 0.282377 6.90442C0.468277 6.45707 0.740479 6.05073 1.08343 5.70863C1.42639 5.36653 1.83337 5.09537 2.28113 4.91064C2.72889 4.72591 3.20865 4.63124 3.693 4.63203H3.773C4.035 2.08146 5.831 0.00100039 9 0.00100039V0Z" fill="white"/>
</svg>
