<svg width="40" height="54" viewBox="0 0 40 54" fill="none" xmlns="http://www.w3.org/2000/svg">
<path d="M5.00001 10.8002C5.00001 7.93579 6.58036 5.18873 9.39341 3.1633C12.2064 1.13787 16.0218 0 20 0C23.9782 0 27.7936 1.13787 30.6066 3.1633C33.4196 5.18873 35 7.93579 35 10.8002V30.0749C37.5458 32.1534 39.2046 34.7166 39.7773 37.457C40.3501 40.1975 39.8123 42.9987 38.2287 45.5246C36.6451 48.0504 34.0829 50.1936 30.8495 51.697C27.6161 53.2003 23.8489 54 20 54C16.1511 54 12.3839 53.2003 9.15047 51.697C5.91708 50.1936 3.35486 48.0504 1.77125 45.5246C0.187652 42.9987 -0.350055 40.1975 0.222656 37.457C0.795368 34.7166 2.45417 32.1534 5.00001 30.0749V10.8002ZM20 5.40009C18.0109 5.40009 16.1032 5.96903 14.6967 6.98174C13.2902 7.99445 12.5 9.36799 12.5 10.8002V32.3105L11.35 33.1025C9.54972 34.3458 8.30723 35.9484 7.78235 37.7043C7.25748 39.4601 7.47423 41.2889 8.40474 42.9553C9.33524 44.6217 10.9369 46.0496 13.0038 47.0552C15.0706 48.0608 17.508 48.5982 20.0025 48.5982C22.497 48.5982 24.9344 48.0608 27.0012 47.0552C29.0681 46.0496 30.6698 44.6217 31.6003 42.9553C32.5308 41.2889 32.7475 39.4601 32.2226 37.7043C31.6978 35.9484 30.4553 34.3458 28.655 33.1025L27.5 32.3141V10.8002C27.5 9.36799 26.7098 7.99445 25.3033 6.98174C23.8968 5.96903 21.9891 5.40009 20 5.40009ZM22.5 19.8003C22.5 19.3229 22.2366 18.8651 21.7678 18.5275C21.2989 18.1899 20.663 18.0003 20 18.0003C19.337 18.0003 18.7011 18.1899 18.2322 18.5275C17.7634 18.8651 17.5 19.3229 17.5 19.8003V34.5066C15.832 34.9312 14.4261 35.7667 13.5309 36.8655C12.6357 37.9642 12.3088 39.2555 12.608 40.511C12.9072 41.7665 13.8132 42.9054 15.1659 43.7265C16.5185 44.5476 18.2308 44.9979 20 44.9979C21.7692 44.9979 23.4815 44.5476 24.8341 43.7265C26.1868 42.9054 27.0928 41.7665 27.392 40.511C27.6912 39.2555 27.3643 37.9642 26.4691 36.8655C25.5739 35.7667 24.168 34.9312 22.5 34.5066V19.8003Z" fill="white"/>
</svg>
