<svg width="40" height="40" viewBox="0 0 24 24" fill="none" xmlns="http://www.w3.org/2000/svg">
<path d="M8.77134 13.5143C8.9533 13.186 8.70947 12.7041 8.22569 12.436C7.74192 12.1678 7.20406 12.2164 7.0221 12.5447L3.07436 19.6666C2.8924 19.9948 3.13623 20.4767 3.62 20.7449C4.10378 21.013 4.64163 20.9645 4.8236 20.6362L8.77134 13.5143ZM12.2698 15.4535C12.4518 15.1252 12.2079 14.6434 11.7242 14.3752C11.2404 14.1071 10.7025 14.1556 10.5206 14.4839L6.57284 21.6058C6.39087 21.9341 6.63471 22.4159 7.11848 22.6841C7.60226 22.9523 8.14011 22.9037 8.32208 22.5754L12.2698 15.4535Z" fill="#6699CC"/>
<path d="M17.7713 13.5143C17.9533 13.186 17.7095 12.7041 17.2257 12.436C16.7419 12.1678 16.2041 12.2164 16.0221 12.5447L12.0744 19.6666C11.8924 19.9948 12.1362 20.4767 12.62 20.7449C13.1038 21.013 13.6416 20.9645 13.8236 20.6362L17.7713 13.5143ZM21.2698 15.4535C21.4518 15.1252 21.2079 14.6434 20.7242 14.3752C20.2404 14.1071 19.7025 14.1556 19.5206 14.4839L15.5728 21.6058C15.3909 21.9341 15.6347 22.4159 16.1185 22.6841C16.6023 22.9523 17.1401 22.9037 17.3221 22.5754L21.2698 15.4535Z" fill="#6699CC"/>
<path d="M19.35 6.04C19.0141 4.33772 18.0976 2.80486 16.7571 1.70325C15.4165 0.601633 13.7351 -0.000392242 12 1.91737e-07C9.11 1.91737e-07 6.6 1.64 5.35 4.04C3.88023 4.19883 2.52101 4.89521 1.53349 5.99532C0.545971 7.09543 -0.000171702 8.52168 4.04928e-08 10C4.04928e-08 13.31 2.69 16 6 16H19C21.76 16 24 13.76 24 11C24 8.36 21.95 6.22 19.35 6.04Z" fill="white"/>
</svg>
