<svg width="40" height="40" viewBox="0 0 40 40" fill="none" xmlns="http://www.w3.org/2000/svg">
<path d="M2.06897 15C1.52024 15 0.993992 14.7366 0.605986 14.2678C0.21798 13.7989 0 13.163 0 12.5C0 11.837 0.21798 11.2011 0.605986 10.7322C0.993992 10.2634 1.52024 10 2.06897 10H18.6207C19.1694 10 19.6957 9.73661 20.0837 9.26777C20.4717 8.79893 20.6897 8.16304 20.6897 7.5C20.6897 6.83696 20.4717 6.20107 20.0837 5.73223C19.6957 5.26339 19.1694 5 18.6207 5C17.9545 5.02343 17.3211 5.35533 16.8517 5.92708C16.4592 6.35945 15.9441 6.59286 15.4131 6.57899C14.8821 6.56511 14.3759 6.30501 13.9992 5.85254C13.6225 5.40008 13.4043 4.7899 13.3897 4.14837C13.3751 3.50683 13.5652 2.88307 13.9207 2.40625C15.1683 0.895267 16.8545 0.0319857 18.6207 0C20.2669 0 21.8456 0.790176 23.0096 2.1967C24.1736 3.60322 24.8276 5.51088 24.8276 7.5C24.8276 9.48912 24.1736 11.3968 23.0096 12.8033C21.8456 14.2098 20.2669 15 18.6207 15H2.06897ZM33.7931 7.5C32.0245 7.52982 30.3355 8.39327 29.0862 9.90625C28.7307 10.3831 28.5406 11.0068 28.5552 11.6484C28.5698 12.2899 28.7881 12.9001 29.1647 13.3525C29.5414 13.805 30.0476 14.0651 30.5786 14.079C31.1097 14.0929 31.6247 13.8594 32.0172 13.4271C32.4884 12.8534 33.1245 12.5213 33.7931 12.5C34.3418 12.5 34.8681 12.7634 35.2561 13.2322C35.6441 13.7011 35.8621 14.337 35.8621 15C35.8621 15.663 35.6441 16.2989 35.2561 16.7678C34.8681 17.2366 34.3418 17.5 33.7931 17.5H3.44828C2.89955 17.5 2.3733 17.7634 1.9853 18.2322C1.59729 18.7011 1.37931 19.337 1.37931 20C1.37931 20.663 1.59729 21.2989 1.9853 21.7678C2.3733 22.2366 2.89955 22.5 3.44828 22.5H33.7931C35.4393 22.5 37.018 21.7098 38.182 20.3033C39.3461 18.8968 40 16.9891 40 15C40 13.0109 39.3461 11.1032 38.182 9.6967C37.018 8.29018 35.4393 7.5 33.7931 7.5ZM24.1379 25H4.82759C4.27886 25 3.75261 25.2634 3.36461 25.7322C2.9766 26.2011 2.75862 26.837 2.75862 27.5C2.75862 28.163 2.9766 28.7989 3.36461 29.2678C3.75261 29.7366 4.27886 30 4.82759 30H24.1379C24.6867 30 25.2129 30.2634 25.6009 30.7322C25.9889 31.2011 26.2069 31.837 26.2069 32.5C26.2069 33.163 25.9889 33.7989 25.6009 34.2678C25.2129 34.7366 24.6867 35 24.1379 35C23.4712 34.9763 22.8375 34.6444 22.3672 34.0729C22.1797 33.8213 21.9517 33.6184 21.6973 33.4764C21.4428 33.3345 21.1672 33.2565 20.887 33.2472C20.6069 33.2379 20.3281 33.2974 20.0675 33.4222C19.807 33.547 19.5702 33.7345 19.3714 33.9733C19.1727 34.212 19.0161 34.4971 18.9113 34.8111C18.8065 35.1252 18.7555 35.4617 18.7616 35.8003C18.7676 36.1389 18.8306 36.4724 18.9465 36.7807C19.0625 37.089 19.2291 37.3656 19.4362 37.5937C20.6842 39.1052 22.3711 39.9686 24.1379 40C25.7841 40 27.3629 39.2098 28.5269 37.8033C29.6909 36.3968 30.3448 34.4891 30.3448 32.5C30.3448 30.5109 29.6909 28.6032 28.5269 27.1967C27.3629 25.7902 25.7841 25 24.1379 25Z" fill="white"/>
</svg>
