<svg width="37" height="40" viewBox="0 0 37 40" fill="none" xmlns="http://www.w3.org/2000/svg">
<path d="M18.5 40C13.374 40 9.00873 38.386 5.40431 35.1579C1.7999 31.9298 -0.00154068 28 9.8867e-07 23.3684C9.8867e-07 21.1579 0.472522 19.0442 1.41756 17.0274C2.3626 15.0105 3.70154 13.2295 5.43438 11.6842L18.5 0L31.5656 11.6842C33.3 13.2281 34.6397 15.0091 35.5847 17.0274C36.5298 19.0456 37.0015 21.1593 37 23.3684C37 28 35.1986 31.9298 31.5957 35.1579C27.9928 38.386 23.6276 40 18.5 40ZM4.625 23.3684H32.375C32.375 21.7193 32.0281 20.1495 31.3344 18.6589C30.6406 17.1684 29.6385 15.8611 28.3281 14.7368L18.5 5.89474L8.67188 14.7368C7.36146 15.8596 6.35938 17.167 5.66563 18.6589C4.97188 20.1509 4.625 21.7207 4.625 23.3684Z" fill="white"/>
</svg>
