<svg width="40" height="40" viewBox="0 0 22 22" fill="none" xmlns="http://www.w3.org/2000/svg">
<path d="M7 2V0.5C7 0.367392 7.05268 0.240215 7.14645 0.146447C7.24021 0.0526784 7.36739 0 7.5 0C7.63261 0 7.75979 0.0526784 7.85355 0.146447C7.94732 0.240215 8 0.367392 8 0.5V2C8 2.13261 7.94732 2.25979 7.85355 2.35355C7.75979 2.44732 7.63261 2.5 7.5 2.5C7.36739 2.5 7.24021 2.44732 7.14645 2.35355C7.05268 2.25979 7 2.13261 7 2ZM7.5 3.5C6.70887 3.5 5.93552 3.7346 5.27772 4.17412C4.61992 4.61365 4.10723 5.23836 3.80448 5.96927C3.50173 6.70017 3.42252 7.50444 3.57686 8.28036C3.7312 9.05629 4.11216 9.76902 4.67157 10.3284C5.23098 10.8878 5.94371 11.2688 6.71964 11.4231C7.49556 11.5775 8.29983 11.4983 9.03073 11.1955C9.76164 10.8928 10.3864 10.3801 10.8259 9.72228C11.2654 9.06448 11.5 8.29113 11.5 7.5C11.4988 6.43949 11.077 5.42275 10.3271 4.67285C9.57725 3.92296 8.56051 3.50116 7.5 3.5ZM3.14625 3.85375C3.24007 3.94757 3.36732 4.00028 3.5 4.00028C3.63268 4.00028 3.75993 3.94757 3.85375 3.85375C3.94757 3.75993 4.00028 3.63268 4.00028 3.5C4.00028 3.36732 3.94757 3.24007 3.85375 3.14625L2.85375 2.14625C2.75993 2.05243 2.63268 1.99972 2.5 1.99972C2.36732 1.99972 2.24007 2.05243 2.14625 2.14625C2.05243 2.24007 1.99972 2.36732 1.99972 2.5C1.99972 2.63268 2.05243 2.75993 2.14625 2.85375L3.14625 3.85375ZM3.14625 11.1462L2.14625 12.1462C2.05243 12.2401 1.99972 12.3673 1.99972 12.5C1.99972 12.6327 2.05243 12.7599 2.14625 12.8538C2.24007 12.9476 2.36732 13.0003 2.5 13.0003C2.63268 13.0003 2.75993 12.9476 2.85375 12.8538L3.85375 11.8538C3.90021 11.8073 3.93706 11.7521 3.9622 11.6914C3.98734 11.6308 4.00028 11.5657 4.00028 11.5C4.00028 11.4343 3.98734 11.3692 3.9622 11.3086C3.93706 11.2479 3.90021 11.1927 3.85375 11.1462C3.8073 11.0998 3.75214 11.0629 3.69145 11.0378C3.63075 11.0127 3.5657 10.9997 3.5 10.9997C3.4343 10.9997 3.36925 11.0127 3.30855 11.0378C3.24786 11.0629 3.19271 11.0998 3.14625 11.1462ZM11.5 4C11.5657 4.00005 11.6307 3.98716 11.6914 3.96207C11.7521 3.93697 11.8073 3.90017 11.8538 3.85375L12.8538 2.85375C12.9476 2.75993 13.0003 2.63268 13.0003 2.5C13.0003 2.36732 12.9476 2.24007 12.8538 2.14625C12.7599 2.05243 12.6327 1.99972 12.5 1.99972C12.3673 1.99972 12.2401 2.05243 12.1462 2.14625L11.1462 3.14625C11.0762 3.21618 11.0286 3.3053 11.0092 3.40235C10.9899 3.49939 10.9998 3.59998 11.0377 3.6914C11.0756 3.78281 11.1397 3.86092 11.222 3.91586C11.3043 3.9708 11.4011 4.00008 11.5 4ZM11.8538 11.1462C11.7599 11.0524 11.6327 10.9997 11.5 10.9997C11.3673 10.9997 11.2401 11.0524 11.1462 11.1462C11.0524 11.2401 10.9997 11.3673 10.9997 11.5C10.9997 11.6327 11.0524 11.7599 11.1462 11.8538L12.1462 12.8538C12.1927 12.9002 12.2479 12.9371 12.3086 12.9622C12.3692 12.9873 12.4343 13.0003 12.5 13.0003C12.5657 13.0003 12.6308 12.9873 12.6914 12.9622C12.7521 12.9371 12.8073 12.9002 12.8538 12.8538C12.9002 12.8073 12.9371 12.7521 12.9622 12.6914C12.9873 12.6308 13.0003 12.5657 13.0003 12.5C13.0003 12.4343 12.9873 12.3692 12.9622 12.3086C12.9371 12.2479 12.9002 12.1927 12.8538 12.1462L11.8538 11.1462ZM2.5 7.5C2.5 7.36739 2.44732 7.24021 2.35355 7.14645C2.25979 7.05268 2.13261 7 2 7H0.5C0.367392 7 0.240215 7.05268 0.146447 7.14645C0.0526784 7.24021 0 7.36739 0 7.5C0 7.63261 0.0526784 7.75979 0.146447 7.85355C0.240215 7.94732 0.367392 8 0.5 8H2C2.13261 8 2.25979 7.94732 2.35355 7.85355C2.44732 7.75979 2.5 7.63261 2.5 7.5ZM7.5 12.5C7.36739 12.5 7.24021 12.5527 7.14645 12.6464C7.05268 12.7402 7 12.8674 7 13V14.5C7 14.6326 7.05268 14.7598 7.14645 14.8536C7.24021 14.9473 7.36739 15 7.5 15C7.63261 15 7.75979 14.9473 7.85355 14.8536C7.94732 14.7598 8 14.6326 8 14.5V13C8 12.8674 7.94732 12.7402 7.85355 12.6464C7.75979 12.5527 7.63261 12.5 7.5 12.5ZM14.5 7H13C12.8674 7 12.7402 7.05268 12.6464 7.14645C12.5527 7.24021 12.5 7.36739 12.5 7.5C12.5 7.63261 12.5527 7.75979 12.6464 7.85355C12.7402 7.94732 12.8674 8 13 8H14.5C14.6326 8 14.7598 7.94732 14.8536 7.85355C14.9473 7.75979 15 7.63261 15 7.5C15 7.36739 14.9473 7.24021 14.8536 7.14645C14.7598 7.05268 14.6326 7 14.5 7Z" fill="#FFD233"/>
<path d="M8.745 20.4997H17.246C17.436 20.4997 17.6189 20.5719 17.7578 20.7017C17.8966 20.8314 17.9811 21.0091 17.994 21.1987C18.007 21.3883 17.9475 21.5758 17.8276 21.7232C17.7077 21.8707 17.5362 21.9671 17.348 21.993L17.246 22H8.745C8.55498 21.9999 8.37206 21.9277 8.23321 21.798C8.09436 21.6682 8.00993 21.4906 7.99697 21.301C7.98402 21.1113 8.04352 20.9239 8.16343 20.7764C8.28335 20.629 8.45475 20.5326 8.643 20.5067L8.745 20.4997ZM5.75 17.519H20.25C20.4388 17.5208 20.6201 17.5937 20.7575 17.7233C20.8949 17.8529 20.9783 18.0295 20.9912 18.218C21.0041 18.4064 20.9454 18.5928 20.8269 18.7399C20.7084 18.8869 20.5388 18.9839 20.352 19.0113L20.25 19.0183H5.75C5.55998 19.0183 5.37706 18.9461 5.23821 18.8163C5.09936 18.6866 5.01493 18.5089 5.00197 18.3193C4.98902 18.1297 5.04852 17.9422 5.16843 17.7948C5.28835 17.6473 5.45975 17.5509 5.648 17.525L5.75 17.518V17.519ZM13 4C16.168 4 17.966 6.09747 18.227 8.63103H18.307C18.7914 8.63024 19.2713 8.72495 19.7191 8.90974C20.1669 9.09453 20.574 9.36578 20.9169 9.70798C21.2599 10.0502 21.5321 10.4566 21.7179 10.9041C21.9037 11.3516 21.9996 11.8313 22 12.3158C21.9993 12.8002 21.9033 13.2797 21.7173 13.727C21.5314 14.1742 21.2592 14.5804 20.9162 14.9224C20.5733 15.2644 20.1663 15.5355 19.7186 15.7201C19.2709 15.9048 18.7913 15.9995 18.307 15.9987H7.693C7.20873 15.9995 6.72905 15.9048 6.28136 15.7201C5.83366 15.5355 5.42673 15.2644 5.08379 14.9224C4.74085 14.5804 4.46862 14.1742 4.28266 13.727C4.09671 13.2797 4.00066 12.8002 4 12.3158C4.00052 11.8314 4.09648 11.3518 4.28238 10.9044C4.46828 10.4571 4.74048 10.0507 5.08343 9.70863C5.42639 9.36653 5.83337 9.09537 6.28113 8.91064C6.72889 8.72591 7.20865 8.63124 7.693 8.63203H7.773C8.035 6.08146 9.831 4.001 13 4.001V4Z" fill="white"/>
</svg>
