<svg width="40" height="37" viewBox="0 0 16 13" fill="none" xmlns="http://www.w3.org/2000/svg">
<path d="M7.646 1.14689C7.69245 1.10033 7.74762 1.06339 7.80837 1.03818C7.86911 1.01297 7.93423 1 8 1C8.06577 1 8.13089 1.01297 8.19163 1.03818C8.25238 1.06339 8.30755 1.10033 8.354 1.14689L9.854 2.64689C9.90049 2.69338 9.93736 2.74857 9.96252 2.80931C9.98768 2.87005 10.0006 2.93515 10.0006 3.00089C10.0006 3.06664 9.98768 3.13174 9.96252 3.19248C9.93736 3.25322 9.90049 3.30841 9.854 3.35489C9.80751 3.40138 9.75232 3.43826 9.69158 3.46342C9.63084 3.48858 9.56574 3.50153 9.5 3.50153C9.43426 3.50153 9.36916 3.48858 9.30842 3.46342C9.24768 3.43826 9.19249 3.40138 9.146 3.35489L8.5 2.70789V4.50089C8.5 4.6335 8.44732 4.76068 8.35355 4.85445C8.25979 4.94822 8.13261 5.00089 8 5.00089C7.86739 5.00089 7.74021 4.94822 7.64645 4.85445C7.55268 4.76068 7.5 4.6335 7.5 4.50089V2.70789L6.854 3.35489C6.80751 3.40138 6.75232 3.43826 6.69158 3.46342C6.63084 3.48858 6.56574 3.50153 6.5 3.50153C6.43426 3.50153 6.36916 3.48858 6.30842 3.46342C6.24768 3.43826 6.19249 3.40138 6.146 3.35489C6.09951 3.30841 6.06264 3.25322 6.03748 3.19248C6.01232 3.13174 5.99937 3.06664 5.99937 3.00089C5.99937 2.93515 6.01232 2.87005 6.03748 2.80931C6.06264 2.74857 6.09951 2.69338 6.146 2.64689L7.646 1.14689ZM2.343 4.34389C2.43676 4.25016 2.56392 4.1975 2.6965 4.1975C2.82908 4.1975 2.95624 4.25016 3.05 4.34389L4.464 5.75789C4.55508 5.85219 4.60548 5.9785 4.60434 6.10959C4.6032 6.24069 4.55061 6.3661 4.45791 6.4588C4.36521 6.55151 4.2398 6.60409 4.1087 6.60523C3.9776 6.60637 3.8513 6.55597 3.757 6.46489L2.343 5.05089C2.24926 4.95713 2.19661 4.82998 2.19661 4.69739C2.19661 4.56481 2.24926 4.43766 2.343 4.34389ZM13.657 4.34389C13.7507 4.43766 13.8034 4.56481 13.8034 4.69739C13.8034 4.82998 13.7507 4.95713 13.657 5.05089L12.243 6.46489C12.1969 6.51265 12.1417 6.55074 12.0807 6.57694C12.0197 6.60315 11.9541 6.61694 11.8877 6.61752C11.8213 6.6181 11.7555 6.60545 11.694 6.5803C11.6326 6.55516 11.5767 6.51804 11.5298 6.47109C11.4829 6.42414 11.4457 6.36832 11.4206 6.30687C11.3954 6.24542 11.3828 6.17958 11.3834 6.11319C11.384 6.0468 11.3977 5.98119 11.4239 5.92019C11.4502 5.85919 11.4882 5.80402 11.536 5.75789L12.95 4.34389C13.0438 4.25016 13.1709 4.1975 13.3035 4.1975C13.4361 4.1975 13.5632 4.25016 13.657 4.34389ZM11.709 11.5009C11.9542 10.8937 12.0466 10.2357 11.978 9.58448C11.9095 8.93329 11.6822 8.30887 11.316 7.76606C10.9497 7.22324 10.4559 6.77863 9.87773 6.47125C9.29957 6.16387 8.65479 6.00312 8 6.00312C7.34521 6.00312 6.70043 6.16387 6.12227 6.47125C5.54411 6.77863 5.05025 7.22324 4.68405 7.76606C4.31784 8.30887 4.0905 8.93329 4.02197 9.58448C3.95344 10.2357 4.04582 10.8937 4.291 11.5009H0.5C0.367392 11.5009 0.240215 11.5536 0.146447 11.6473C0.0526784 11.7411 0 11.8683 0 12.0009C0 12.1335 0.0526784 12.2607 0.146447 12.3544C0.240215 12.4482 0.367392 12.5009 0.5 12.5009H15.5C15.6326 12.5009 15.7598 12.4482 15.8536 12.3544C15.9473 12.2607 16 12.1335 16 12.0009C16 11.8683 15.9473 11.7411 15.8536 11.6473C15.7598 11.5536 15.6326 11.5009 15.5 11.5009H11.71H11.709ZM0 10.0009C0 9.86829 0.0526784 9.74111 0.146447 9.64734C0.240215 9.55357 0.367392 9.50089 0.5 9.50089H2.5C2.63261 9.50089 2.75979 9.55357 2.85355 9.64734C2.94732 9.74111 3 9.86829 3 10.0009C3 10.1335 2.94732 10.2607 2.85355 10.3544C2.75979 10.4482 2.63261 10.5009 2.5 10.5009H0.5C0.367392 10.5009 0.240215 10.4482 0.146447 10.3544C0.0526784 10.2607 0 10.1335 0 10.0009ZM13 10.0009C13 9.86829 13.0527 9.74111 13.1464 9.64734C13.2402 9.55357 13.3674 9.50089 13.5 9.50089H15.5C15.6326 9.50089 15.7598 9.55357 15.8536 9.64734C15.9473 9.74111 16 9.86829 16 10.0009C16 10.1335 15.9473 10.2607 15.8536 10.3544C15.7598 10.4482 15.6326 10.5009 15.5 10.5009H13.5C13.3674 10.5009 13.2402 10.4482 13.1464 10.3544C13.0527 10.2607 13 10.1335 13 10.0009Z" fill="#FFCE31"/>
<path d="M9.14796 7H6.85204V3.46465H5L8 0L11 3.46465H9.14796V7Z" fill="white"/>
</svg>
