<svg width="40" height="39" viewBox="0 0 16 15" fill="none" xmlns="http://www.w3.org/2000/svg">
<path d="M7.646 3.14689C7.69245 3.10033 7.74762 3.06339 7.80837 3.03818C7.86911 3.01297 7.93423 3 8 3C8.06577 3 8.13089 3.01297 8.19163 3.03818C8.25238 3.06339 8.30755 3.10033 8.354 3.14689L9.854 4.64689C9.90049 4.69338 9.93736 4.74857 9.96252 4.80931C9.98768 4.87005 10.0006 4.93515 10.0006 5.00089C10.0006 5.06664 9.98768 5.13174 9.96252 5.19248C9.93736 5.25322 9.90049 5.30841 9.854 5.35489C9.80751 5.40138 9.75232 5.43826 9.69158 5.46342C9.63084 5.48858 9.56574 5.50153 9.5 5.50153C9.43426 5.50153 9.36916 5.48858 9.30842 5.46342C9.24768 5.43826 9.19249 5.40138 9.146 5.35489L8.5 4.70789V6.50089C8.5 6.6335 8.44732 6.76068 8.35355 6.85445C8.25979 6.94822 8.13261 7.00089 8 7.00089C7.86739 7.00089 7.74021 6.94822 7.64645 6.85445C7.55268 6.76068 7.5 6.6335 7.5 6.50089V4.70789L6.854 5.35489C6.80751 5.40138 6.75232 5.43826 6.69158 5.46342C6.63084 5.48858 6.56574 5.50153 6.5 5.50153C6.43426 5.50153 6.36916 5.48858 6.30842 5.46342C6.24768 5.43826 6.19249 5.40138 6.146 5.35489C6.09951 5.30841 6.06264 5.25322 6.03748 5.19248C6.01232 5.13174 5.99937 5.06664 5.99937 5.00089C5.99937 4.93515 6.01232 4.87005 6.03748 4.80931C6.06264 4.74857 6.09951 4.69338 6.146 4.64689L7.646 3.14689ZM2.343 6.34389C2.43676 6.25016 2.56392 6.1975 2.6965 6.1975C2.82908 6.1975 2.95624 6.25016 3.05 6.34389L4.464 7.75789C4.55508 7.85219 4.60548 7.9785 4.60434 8.10959C4.6032 8.24069 4.55061 8.3661 4.45791 8.4588C4.36521 8.55151 4.2398 8.60409 4.1087 8.60523C3.9776 8.60637 3.8513 8.55597 3.757 8.46489L2.343 7.05089C2.24926 6.95713 2.19661 6.82998 2.19661 6.69739C2.19661 6.56481 2.24926 6.43766 2.343 6.34389ZM13.657 6.34389C13.7507 6.43766 13.8034 6.56481 13.8034 6.69739C13.8034 6.82998 13.7507 6.95713 13.657 7.05089L12.243 8.46489C12.1969 8.51265 12.1417 8.55074 12.0807 8.57694C12.0197 8.60315 11.9541 8.61694 11.8877 8.61752C11.8213 8.6181 11.7555 8.60545 11.694 8.5803C11.6326 8.55516 11.5767 8.51804 11.5298 8.47109C11.4829 8.42414 11.4457 8.36832 11.4206 8.30687C11.3954 8.24542 11.3828 8.17958 11.3834 8.11319C11.384 8.0468 11.3977 7.98119 11.4239 7.92019C11.4502 7.85919 11.4882 7.80402 11.536 7.75789L12.95 6.34389C13.0438 6.25016 13.1709 6.1975 13.3035 6.1975C13.4361 6.1975 13.5632 6.25016 13.657 6.34389ZM11.709 13.5009C11.9542 12.8937 12.0466 12.2357 11.978 11.5845C11.9095 10.9333 11.6822 10.3089 11.316 9.76606C10.9497 9.22324 10.4559 8.77863 9.87773 8.47125C9.29957 8.16387 8.65479 8.00312 8 8.00312C7.34521 8.00312 6.70043 8.16387 6.12227 8.47125C5.54411 8.77863 5.05025 9.22324 4.68405 9.76606C4.31784 10.3089 4.0905 10.9333 4.02197 11.5845C3.95344 12.2357 4.04582 12.8937 4.291 13.5009H0.5C0.367392 13.5009 0.240215 13.5536 0.146447 13.6473C0.0526784 13.7411 0 13.8683 0 14.0009C0 14.1335 0.0526784 14.2607 0.146447 14.3544C0.240215 14.4482 0.367392 14.5009 0.5 14.5009H15.5C15.6326 14.5009 15.7598 14.4482 15.8536 14.3544C15.9473 14.2607 16 14.1335 16 14.0009C16 13.8683 15.9473 13.7411 15.8536 13.6473C15.7598 13.5536 15.6326 13.5009 15.5 13.5009H11.71H11.709ZM0 12.0009C0 11.8683 0.0526784 11.7411 0.146447 11.6473C0.240215 11.5536 0.367392 11.5009 0.5 11.5009H2.5C2.63261 11.5009 2.75979 11.5536 2.85355 11.6473C2.94732 11.7411 3 11.8683 3 12.0009C3 12.1335 2.94732 12.2607 2.85355 12.3544C2.75979 12.4482 2.63261 12.5009 2.5 12.5009H0.5C0.367392 12.5009 0.240215 12.4482 0.146447 12.3544C0.0526784 12.2607 0 12.1335 0 12.0009ZM13 12.0009C13 11.8683 13.0527 11.7411 13.1464 11.6473C13.2402 11.5536 13.3674 11.5009 13.5 11.5009H15.5C15.6326 11.5009 15.7598 11.5536 15.8536 11.6473C15.9473 11.7411 16 11.8683 16 12.0009C16 12.1335 15.9473 12.2607 15.8536 12.3544C15.7598 12.4482 15.6326 12.5009 15.5 12.5009H13.5C13.3674 12.5009 13.2402 12.4482 13.1464 12.3544C13.0527 12.2607 13 12.1335 13 12.0009Z" fill="#FFCE31"/>
<path d="M6.85204 3.13942e-07H9.14796L9.14796 4.0404H11L8 8L5 4.0404L6.85204 4.0404L6.85204 3.13942e-07Z" fill="white"/>
</svg>
