<svg width="40" height="25" viewBox="0 0 40 25" fill="none" xmlns="http://www.w3.org/2000/svg">
<path d="M20 20C22.2727 20 24.2048 19.2706 25.7964 17.8117C27.3879 16.3528 28.183 14.5822 28.1818 12.5C28.1818 10.4167 27.3861 8.64556 25.7945 7.18667C24.203 5.72778 22.2715 4.99889 20 5C17.7273 5 15.7952 5.72944 14.2036 7.18833C12.6121 8.64722 11.817 10.4178 11.8182 12.5C11.8182 14.5833 12.6139 16.3544 14.2055 17.8133C15.797 19.2722 17.7285 20.0011 20 20ZM20 17C18.6364 17 17.477 16.5622 16.5218 15.6867C15.5667 14.8111 15.0897 13.7489 15.0909 12.5C15.0909 11.25 15.5685 10.1872 16.5236 9.31167C17.4788 8.43611 18.6376 7.99889 20 8C21.3636 8 22.523 8.43778 23.4782 9.31333C24.4333 10.1889 24.9103 11.2511 24.9091 12.5C24.9091 13.75 24.4321 14.8128 23.4782 15.6883C22.5242 16.5639 21.3648 17.0011 20 17ZM20 25C15.5758 25 11.5455 23.8678 7.90909 21.6033C4.27273 19.3389 1.63636 16.3044 0 12.5C1.63636 8.69444 4.27273 5.65944 7.90909 3.395C11.5455 1.13056 15.5758 -0.00111029 20 8.17394e-07C24.4242 8.17394e-07 28.4545 1.13222 32.0909 3.39667C35.7273 5.66111 38.3636 8.69556 40 12.5C38.3636 16.3056 35.7273 19.3406 32.0909 21.605C28.4545 23.8694 24.4242 25.0011 20 25Z" fill="white"/>
</svg>
